<svg width="80" height="111" viewBox="0 0 80 111" fill="none" xmlns="http://www.w3.org/2000/svg">
<path d="M39.1672 105.337C39.1816 105.337 39.1963 105.338 39.2106 105.336C39.3287 105.316 39.4524 105.228 39.5227 105.133C39.9395 104.57 39.7429 99.5976 39.7392 98.5591C39.7322 96.571 39.9552 89.0414 39.5248 87.7571C39.403 87.3935 39.0535 87.0227 38.7994 86.7354C36.6805 84.3392 34.3399 82.0955 32.1033 79.8095L22.9516 70.3819C21.7446 69.1546 20.5052 67.8955 19.3174 66.6426C19.0128 66.3213 19.033 65.5848 19.0105 65.1571C18.9337 63.7056 18.9817 62.1691 18.8139 60.7283C20.6319 60.3334 22.4149 60.2125 24.1765 59.8789C24.6191 60.2023 25.2338 60.8898 25.6503 61.293C26.7544 62.3621 27.8106 63.5516 28.8946 64.6285L44.3515 80.2865C46.9789 82.942 47.7377 81.9327 49.9506 79.6592L52.8702 76.6608C55.1252 74.3194 57.5895 71.9866 59.8524 69.6274C61.2308 68.123 62.9391 66.6791 64.1554 65.0388C68.3177 59.4258 68.6396 51.3409 64.76 45.4988C63.5113 43.6185 61.2041 41.486 59.5849 39.847L52.2204 32.3524L37.2037 17.0243C33.3949 13.0657 29.5498 9.14149 25.6691 5.25243C25.5081 5.05164 25.2805 5.03603 25.0532 5.07118C24.2104 5.72118 24.3226 8.55086 24.2789 9.59773C24.1659 12.229 24.1132 14.8634 24.1209 17.497C24.1027 20.4727 23.8985 24.1149 24.3777 27.0063C24.503 27.7618 28.9303 32.1587 29.6638 32.9188L36.1091 39.6246L47.9466 51.9844C48.9087 52.9875 49.8816 53.9804 50.8649 54.9627C51.6204 55.717 52.7743 56.8334 53.4018 57.6827C52.8479 59.0895 52.8648 60.9342 52.2679 62.324C52.0834 62.7534 50.9201 62.8682 50.5121 62.955C49.2657 63.2251 48.0143 63.4716 46.7586 63.6945C45.2186 62.8204 41.2429 58.5628 39.8342 57.0813L32.5698 49.5353C29.6656 46.4974 26.9762 43.5227 23.6081 40.9586C22.3465 41.8155 21.3298 42.9365 20.2768 44.0223C18.6043 45.7723 16.9525 47.5421 15.3217 49.3313C13.6619 51.1173 11.8829 52.9341 10.2497 54.7261C7.47101 57.775 6.31092 62.6656 6.59845 66.7147C7.07881 73.4791 11.7532 78.31 16.2566 82.8894C19.4466 86.1517 22.7321 89.35 26.0262 92.5192C30.4082 96.7352 34.5791 101.344 39.1672 105.337Z" fill="#E85002"/>
</svg>
