<svg width="153" height="212" viewBox="0 0 153 212" fill="none" xmlns="http://www.w3.org/2000/svg">
<path d="M74.5156 200.404C74.5431 200.403 74.571 200.406 74.5982 200.401C74.8228 200.363 75.0582 200.197 75.192 200.016C75.985 198.944 75.6108 189.484 75.6039 187.509C75.5905 183.726 76.0147 169.401 75.1959 166.958C74.9641 166.266 74.2993 165.561 73.8159 165.014C69.7847 160.455 65.3317 156.187 61.0765 151.837L43.6655 133.902C41.3691 131.567 39.011 129.171 36.7514 126.787C36.1719 126.176 36.2104 124.775 36.1674 123.961C36.0213 121.2 36.1127 118.277 35.7934 115.536C39.2521 114.784 42.6444 114.554 45.9958 113.92C46.8379 114.535 48.0073 115.843 48.7997 116.61C50.9002 118.644 52.9097 120.907 54.972 122.956L84.3787 152.745C89.3774 157.797 90.8209 155.877 95.0311 151.552L100.585 145.847C104.876 141.393 109.564 136.955 113.869 132.466C116.492 129.604 119.742 126.857 122.056 123.736C129.974 113.058 130.587 97.6761 123.206 86.5615C120.83 82.9842 116.441 78.9271 113.36 75.809L99.3493 61.5505L70.7801 32.3887C63.5338 24.8575 56.2186 17.3917 48.8354 9.99272C48.5292 9.61073 48.0962 9.58102 47.6637 9.6479C46.0603 10.8845 46.2737 16.268 46.1906 18.2597C45.9757 23.2656 45.8754 28.2775 45.8899 33.2879C45.8554 38.9494 45.4669 45.8786 46.3785 51.3795C46.6169 52.8168 55.0399 61.1819 56.4354 62.6279L68.6975 75.3858L91.2185 98.9003C93.0489 100.809 94.8997 102.698 96.7705 104.567C98.2078 106.002 100.403 108.125 101.597 109.741C100.543 112.418 100.575 115.927 99.4397 118.571C99.0887 119.388 96.8754 119.607 96.0993 119.772C93.728 120.286 91.3472 120.755 88.9582 121.179C86.0284 119.516 78.4646 111.416 75.7846 108.597L61.9641 94.2409C56.4388 88.4613 51.3223 82.8018 44.9144 77.9237C42.5142 79.5541 40.5799 81.6867 38.5766 83.7524C35.3947 87.0819 32.2521 90.4489 29.1496 93.8527C25.9919 97.2506 22.6072 100.707 19.5 104.116C14.2136 109.917 12.0065 119.221 12.5536 126.925C13.4674 139.794 22.3605 148.985 30.9281 157.697C36.9972 163.904 43.2478 169.988 49.5148 176.018C57.8516 184.039 65.7868 192.808 74.5156 200.404Z" fill="#FFF9F0"/>
</svg>
